<?xml version="1.0" encoding="UTF-8"?>
<svg id="Layer_1" data-name="Layer 1" xmlns="http://www.w3.org/2000/svg" viewBox="0 0 107.74 70.34">
  <defs>
    <style>
      .cls-1 {
        fill: #1d1d1b;
      }
    </style>
  </defs>
  <path class="cls-1" d="M3.5,70.34c-1.93,0-3.5-1.57-3.5-3.5V3.5C0,1.57,1.57,0,3.5,0h15.83C20.46,0,21.52,.54,22.17,1.45c.66,.91,.84,2.09,.48,3.15L7,51.56v15.28c0,1.93-1.57,3.5-3.5,3.5ZM7,7V29.43L14.48,7H7Z"/>
  <path class="cls-1" d="M105.04,.09c-1.58-.37-3.21,.39-3.93,1.84l-17.98,35.96-6.64-13.29,9.77-19.55c.86-1.73,.16-3.83-1.57-4.7-.49-.25-1.01-.36-1.53-.37-.01,0-.03,0-.04,0H40.9c-1.93,0-3.5,1.57-3.5,3.5v63.34c0,1.93,1.57,3.5,3.5,3.5s3.5-1.57,3.5-3.5V18.33l25.04,50.08s0,0,0,0c.33,.65,.86,1.21,1.56,1.56,.5,.25,1.04,.37,1.56,.37,1.28,0,2.52-.71,3.13-1.94l25.04-50.08v48.51c0,1.93,1.57,3.5,3.5,3.5s3.5-1.57,3.5-3.5V3.5c0-1.62-1.12-3.03-2.7-3.41Zm-32.47,58.92L46.57,7h13.29l19.36,38.72-6.64,13.29Zm-4.89-52.01h9.78l-4.89,9.78-4.89-9.78Z"/>
</svg>