<?xml version="1.0" encoding="UTF-8"?>
<svg id="Layer_2" data-name="Layer 2" xmlns="http://www.w3.org/2000/svg" viewBox="0 0 606.03 133.57">
  <defs>
    <style>
      .cls-1 {
        fill: #939598;
      }

      .cls-2 {
        fill: #231f20;
      }
    </style>
  </defs>
  <g>
    <path class="cls-2" d="M6.59,132.44c-3.64,0-6.59-2.95-6.59-6.59V6.59C0,2.95,2.95,0,6.59,0h29.81C38.52,0,40.51,1.02,41.75,2.74c1.24,1.72,1.57,3.93,.91,5.94L13.18,97.08v28.77c0,3.64-2.95,6.59-6.59,6.59ZM13.18,13.18V55.42L27.26,13.18H13.18Z"/>
    <path class="cls-2" d="M197.8,.18c-2.98-.7-6.04,.73-7.41,3.47l-33.86,67.72-12.51-25.02,18.4-36.8c1.63-3.26,.31-7.21-2.95-8.84-.92-.46-1.9-.68-2.87-.69-.03,0-.05,0-.08,0H77.02c-3.64,0-6.59,2.95-6.59,6.59V125.85c0,3.64,2.95,6.59,6.59,6.59s6.59-2.95,6.59-6.59V34.51l47.15,94.29s0,0,.01,.01c.62,1.23,1.61,2.27,2.93,2.93,.95,.47,1.95,.7,2.94,.7,2.42,0,4.75-1.34,5.9-3.64l47.15-94.29V125.85c0,3.64,2.95,6.59,6.59,6.59s6.59-2.95,6.59-6.59V6.59c0-3.06-2.1-5.71-5.08-6.41Zm-61.15,110.94L87.69,13.18h25.02l36.46,72.92-12.51,25.02ZM127.44,13.18h18.42l-9.21,18.42-9.21-18.42Z"/>
    <path class="cls-1" d="M241.82,70.34h52.78c1.52,0,2.87-.98,3.33-2.43,.46-1.45-.06-3.03-1.3-3.92l-36.66-26.18,31.83-31.83c1.37-1.37,1.37-3.58,0-4.95s-3.58-1.37-4.95,0l-41.53,41.53v-11.21l25.37-25.37c1.37-1.37,1.37-3.58,0-4.95-1.37-1.37-3.58-1.37-4.95,0l-20.42,20.42V3.5C245.32,1.57,243.75,0,241.82,0s-3.5,1.57-3.5,3.5v63.34c0,1.93,1.57,3.5,3.5,3.5Zm3.5-17.88l9.63-9.63,28.73,20.51h-38.36v-10.88Z"/>
    <path class="cls-1" d="M369.31,0c-1.93,0-3.5,1.57-3.5,3.5V57.84l-11.84-12.92s0-.05,0-.08V3.5C353.97,1.57,352.4,0,350.47,0s-3.5,1.57-3.5,3.5V37.29L313.84,1.14c-.98-1.06-2.5-1.42-3.85-.9-1.34,.52-2.23,1.82-2.23,3.26v31.67c0,9.38,3.65,18.21,10.29,24.87,6.64,6.64,15.48,10.3,24.87,10.3h26.39c1.5,0,2.38-.94,2.45-1,.01-.01,1.05-.93,1.05-2.5V3.5C372.81,1.57,371.24,0,369.31,0Zm-26.39,63.34c-7.53,0-14.6-2.93-19.92-8.24-5.32-5.33-8.25-12.41-8.25-19.92h0V12.5l46.6,50.84h-18.43Z"/>
    <path class="cls-1" d="M448.78,64.57c3.65-3.65,5.65-8.49,5.65-13.64h0c0-5.16-2.01-10.01-5.65-13.66t0,0h0c-.6-.6-2.53-2.15-5.29-4.29,0,0,.01-.01,.02-.02,3.64-3.64,5.65-8.49,5.65-13.65h0c0-5.16-2.01-10.01-5.65-13.65C439.85,2.01,434.99,0,429.84,0h-31.7c-2.38,.05-3.17,2.04-3.2,2.08-.08,.14-1.07,2.51,1.06,4.18,.02,.02,26.1,19.29,36.44,27.09-1.79,1.53-3.89,3.32-6.2,5.28-12.53-9.35-25.88-19.17-26.02-19.27-.68-.48-2.16-1.23-3.96-.13-.04,.03-1.59,.91-1.62,2.95v44.65c0,1.56,.91,2.35,1.06,2.51,.04,.03,.97,.99,2.44,.99h36.98c5.01,0,9.98-2.1,13.65-5.76ZM408.79,7h21.05c3.28,0,6.38,1.28,8.71,3.61,2.32,2.32,3.6,5.41,3.6,8.7s-1.28,6.38-3.6,8.7c-.14,.14-.38,.37-.71,.66-8.78-6.66-20.88-15.63-29.05-21.67Zm-7.14,22.11c4.78,3.53,12,8.87,19.11,14.17-6.09,5.14-12.92,10.88-19.11,16.07V29.11Zm36.5,8.58c3.09,2.37,5.16,4.01,5.68,4.53,2.33,2.33,3.61,5.42,3.6,8.71h0c0,3.28-1.28,6.37-3.6,8.7-2.36,2.36-5.54,3.71-8.7,3.71h-27.35c8.72-7.31,22.66-19.02,30.36-25.64Z"/>
    <path class="cls-1" d="M602.53,0h-52.77c-1.93,0-3.5,1.57-3.5,3.5v63.34c0,1.93,1.57,3.5,3.5,3.5s3.5-1.57,3.5-3.5V13.17l11.88,14.25s0,39.41,0,39.41c0,1.93,1.57,3.5,3.5,3.5s3.5-1.57,3.5-3.5v-31.02s27.74,33.29,27.75,33.3c.07,.08,.14,.15,.21,.22,.7,.72,2.07,1.31,3.54,.82,1.66-.56,2.38-2.13,2.4-3.07,0-.08,0-63.58,0-63.58C606.03,1.57,604.47,0,602.53,0Zm-22.37,34.52l-22.93-27.52h22.93v27.52Zm18.87,22.65l-11.88-14.25s0-35.92,0-35.92h11.87V57.17Z"/>
    <path class="cls-1" d="M527.38,3.5C527.38,1.57,525.81,0,523.88,0h-47.5c-1.48,0-2.41,.96-2.44,.99-.15,.15-1.06,.95-1.06,2.51v63.34c0,1.56,.91,2.35,1.06,2.51,.04,.04,.96,.99,2.44,.99h47.5c1.93,0,3.5-1.57,3.5-3.5s-1.57-3.5-3.5-3.5h-37.01s33.86-25.39,33.88-25.41c.05-.04,.23-.19,.27-.23,1.87-1.82,.79-3.9,.7-4.09-.03-.06-.72-1.63-2.69-1.9-.05,0-.11-.01-.17-.02-.06,0-.13,0-.19,0-.03,0-14.27,0-14.27,0l-20.56-24.67h40.03c1.93,0,3.5-1.57,3.5-3.5Zm-19.29,35.17l-28.22,21.16v-21.16h28.22Zm-12.8-7h-15.42V13.17l15.42,18.51Z"/>
  </g>
  <g>
    <path class="cls-1" d="M238.42,114.03c-.61-1.37,1.6-2.27,2.24-.9l8.22,16.38,8.03-16.31c.51-1.31,2.68-.61,2.2,.83l-9.21,18.65c-.45,.83-1.6,1.02-2.14-.09l-9.34-18.55Z"/>
    <path class="cls-1" d="M262.64,113.16c0-1.6,2.4-1.57,2.4,0v19.13c0,1.47-2.4,1.53-2.4,0v-19.13Z"/>
    <path class="cls-1" d="M271.95,133.09c-.8,0-1.47-.64-1.47-1.37v-17.63c0-.74,.67-1.34,1.47-1.34h6.97c6.37,0,9.54,5.09,9.54,10.17s-3.17,10.17-9.54,10.17h-6.97Zm.83-2.08h6.14c4.8,0,7.2-4.06,7.2-8.09s-2.4-8.12-7.2-8.12h-6.14v16.22Z"/>
    <path class="cls-1" d="M294.88,130.98h12.64c1.34,0,1.53,2.11,0,2.11h-13.47c-.9,0-1.47-.64-1.47-1.41v-17.56c0-.73,.58-1.37,1.47-1.37h13.5c1.38,0,1.31,2.05-.03,2.05h-12.64v7.2h12.03c1.28,0,1.34,2.04,0,2.04h-12.03v6.94Z"/>
    <path class="cls-1" d="M316.36,125.96v6.2c0,1.47-2.34,1.47-2.34,.03v-18.36c0-.67,.48-1.12,1.18-1.12h7.58c5.54,0,8.35,3.13,8.35,6.88,0,3.23-1.76,5.56-5.7,6.24l5.18,5.6c1.21,1.21-.54,2.62-1.6,1.53l-6.46-7h-6.21Zm0-2.02h6.46c4.19,0,6.01-1.95,5.95-4.35-.03-2.62-2.24-4.73-5.95-4.73h-6.46v9.08Z"/>
    <path class="cls-1" d="M338.66,130.98h12.64c1.34,0,1.53,2.11,0,2.11h-13.47c-.9,0-1.47-.64-1.47-1.41v-17.56c0-.73,.58-1.37,1.47-1.37h13.5c1.38,0,1.31,2.05-.03,2.05h-12.64v7.2h12.03c1.28,0,1.34,2.04,0,2.04h-12.03v6.94Z"/>
    <path class="cls-1" d="M374.72,129.54c-1.89,2.5-5.05,3.87-8.16,3.84-5.5-.03-10.24-4.61-10.11-10.65,0-4.86,3.65-9.31,8.54-10.24,.48-.06,1.09-.09,1.66-.09,2.78,0,5.76,.96,7.52,3.01,.96,1.12-.67,2.65-1.66,1.5-1.79-2.08-4.77-2.82-7.16-2.21-3.52,.83-6.59,3.94-6.59,8.13,.06,4.51,3.71,8.29,7.83,8.38,2.37,.03,4.83-.99,6.24-2.88v-4.26h-5.76c-1.5,0-1.34-2.11,0-2.11h6.78c.93,0,1.21,.48,1.21,1.18v5.34c0,.35-.06,.77-.35,1.06"/>
    <path class="cls-1" d="M382.66,127.72l-2.59,5.05c-.58,1.18-2.69,.35-2.11-.93l9.66-19.03c.19-.42,.64-.61,1.06-.61s.8,.19,1.02,.61l9.63,18.94c.83,1.38-1.54,2.18-2.15,.93l-2.49-4.96h-12.03Zm6.02-12.09l-5.05,10.07h10.08l-5.02-10.07Zm0-8.83c-1.6,0-2.88,1.09-2.88,2.46s1.28,2.5,2.88,2.5,2.85-1.06,2.85-2.5-1.28-2.46-2.85-2.46m0,1.57c.48,0,.96,.38,.96,.9s-.48,.96-.96,.96c-.51,0-1.02-.45-1.02-.96s.51-.9,1.02-.9"/>
    <path class="cls-1" d="M405.96,130.98h12.64c1.34,0,1.53,2.11,0,2.11h-13.47c-.9,0-1.47-.64-1.47-1.41v-17.56c0-.73,.58-1.37,1.47-1.37h13.5c1.38,0,1.31,2.05-.03,2.05h-12.64v7.2h12.03c1.28,0,1.34,2.04,0,2.04h-12.03v6.94Z"/>
    <path class="cls-1" d="M439.92,113.51c0-1.34,2.43-1.41,2.43,0v18.36c0,1.6-2.2,1.76-2.88,.64l-11.97-16.03,.26,4.42v11.29c0,1.57-2.43,1.6-2.43,0v-18.33c0-1.6,1.79-1.85,2.59-.67l12.32,16.47-.32-4.83v-11.32Z"/>
    <path class="cls-1" d="M449.26,133.09c-.8,0-1.47-.64-1.47-1.37v-17.63c0-.74,.67-1.34,1.47-1.34h6.97c6.37,0,9.54,5.09,9.54,10.17s-3.17,10.17-9.54,10.17h-6.97Zm.83-2.08h6.14c4.8,0,7.2-4.06,7.2-8.09s-2.4-8.12-7.2-8.12h-6.14v16.22Z"/>
    <path class="cls-1" d="M471.61,130.98h12.64c1.34,0,1.53,2.11,0,2.11h-13.47c-.9,0-1.47-.64-1.47-1.41v-17.56c0-.73,.58-1.37,1.47-1.37h13.5c1.38,0,1.31,2.05-.03,2.05h-12.64v7.2h12.03c1.28,0,1.34,2.04,0,2.04h-12.03v6.94Z"/>
    <path class="cls-1" d="M507.04,128.04c.83,2.66,4.38,3.23,6.94,3.23,2.72,0,6.94-.83,6.94-4.06,0-2.78-3.36-3.01-6.88-3.29-4.42-.35-9.15-.77-9.15-5.53,0-4.22,4.86-6.11,8.76-6.11,3.36,0,7.55,.8,8.89,4.45,.48,1.28-1.69,1.85-2.17,.77-.96-2.43-4.38-2.85-6.69-2.85-2.15,0-6.3,.86-6.3,3.77s3.2,3.07,6.91,3.36c4.38,.38,9.08,.61,9.08,5.4s-5.47,6.4-9.4,6.4c-3.26,0-8.25-1.12-9.31-4.96-.39-1.41,2.11-1.89,2.37-.58"/>
    <path class="cls-1" d="M542.25,112.81c1.25-1.12,2.85,.58,1.69,1.6l-8.48,7.52,9.09,9.47c1.21,1.41-.51,2.66-1.7,1.5l-9.02-9.53-3.39,2.97v5.86c0,1.44-2.34,1.5-2.34,0v-18.62c0-1.47,2.34-1.44,2.34,0v10.17l3.1-3.14,8.7-7.8Z"/>
    <path class="cls-1" d="M546,122.57c0-5.02,3.39-9.31,8.48-10.11,1.18-.16,2.27-.13,3.39,0,4.93,.77,8.73,4.86,8.73,10.11,0,6.65-4.8,10.88-10.24,10.88-5.76,0-10.36-4.09-10.36-10.88m2.4,.1c0,5.25,3.45,8.57,7.96,8.57s7.87-3.2,7.87-8.57c0-4.13-2.72-7.42-6.65-8.06-.96-.13-1.89-.13-2.78,0-3.87,.61-6.4,3.71-6.4,8.06"/>
    <path class="cls-1" d="M572.3,133.09c-.86,0-1.21-.42-1.21-1.18v-18.36c0-1.51,2.37-1.51,2.37,0v17.43h11.96c1.63,0,1.63,2.11,0,2.11h-13.11Z"/>
    <path class="cls-1" d="M592.32,130.98h12.64c1.34,0,1.53,2.11,0,2.11h-13.47c-.9,0-1.47-.64-1.47-1.41v-17.56c0-.73,.58-1.37,1.47-1.37h13.5c1.38,0,1.31,2.05-.03,2.05h-12.64v7.2h12.03c1.28,0,1.34,2.04,0,2.04h-12.03v6.94Z"/>
  </g>
</svg>