<?xml version="1.0" encoding="UTF-8"?>
<svg id="Layer_1" data-name="Layer 1" xmlns="http://www.w3.org/2000/svg" viewBox="0 0 367.72 70.34">
  <defs>
    <style>
      .cls-1 {
        fill: #1d1d1b;
      }
    </style>
  </defs>
  <path class="cls-1" d="M3.5,70.34H56.28c1.52,0,2.87-.98,3.33-2.43,.46-1.45-.06-3.03-1.3-3.92L21.65,37.81,53.48,5.97c1.37-1.37,1.37-3.58,0-4.95s-3.58-1.37-4.95,0L7,42.56v-11.21L32.37,5.97c1.37-1.37,1.37-3.58,0-4.95-1.37-1.37-3.58-1.37-4.95,0L7,21.45V3.5C7,1.57,5.43,0,3.5,0S0,1.57,0,3.5v63.34c0,1.93,1.57,3.5,3.5,3.5Zm3.5-17.88l9.63-9.63,28.73,20.51H7v-10.88Z"/>
  <path class="cls-1" d="M130.99,0c-1.93,0-3.5,1.57-3.5,3.5V57.84l-11.84-12.92s0-.05,0-.08V3.5C115.66,1.57,114.09,0,112.16,0s-3.5,1.57-3.5,3.5V37.29L75.52,1.14c-.98-1.06-2.5-1.42-3.85-.9-1.34,.52-2.23,1.82-2.23,3.26v31.67c0,9.38,3.65,18.21,10.29,24.87,6.64,6.64,15.48,10.3,24.87,10.3h26.39c1.5,0,2.38-.94,2.45-1,.01-.01,1.05-.93,1.05-2.5V3.5C134.49,1.57,132.93,0,130.99,0Zm-26.39,63.34c-7.53,0-14.6-2.93-19.92-8.24-5.32-5.33-8.25-12.41-8.25-19.92h0V12.5l46.6,50.84h-18.43Z"/>
  <path class="cls-1" d="M210.46,64.57c3.65-3.65,5.65-8.49,5.65-13.64h0c0-5.16-2.01-10.01-5.65-13.66t0,0h0c-.6-.6-2.53-2.15-5.29-4.29,0,0,.01-.01,.02-.02,3.64-3.64,5.65-8.49,5.65-13.65h0c0-5.16-2.01-10.01-5.65-13.65C201.53,2.01,196.68,0,191.53,0h-31.7c-2.38,.05-3.17,2.04-3.2,2.08-.08,.14-1.07,2.51,1.06,4.18,.02,.02,26.1,19.29,36.44,27.09-1.79,1.53-3.89,3.32-6.2,5.28-12.53-9.35-25.88-19.17-26.02-19.27-.68-.48-2.16-1.23-3.96-.13-.04,.03-1.59,.91-1.62,2.95v44.65c0,1.56,.91,2.35,1.06,2.51,.04,.03,.97,.99,2.44,.99h36.98c5.01,0,9.98-2.1,13.65-5.76ZM170.47,7h21.05c3.28,0,6.38,1.28,8.71,3.61,2.32,2.32,3.6,5.41,3.6,8.7s-1.28,6.38-3.6,8.7c-.14,.14-.38,.37-.71,.66-8.78-6.66-20.88-15.63-29.05-21.67Zm-7.14,22.11c4.78,3.53,12,8.87,19.11,14.17-6.09,5.14-12.92,10.88-19.11,16.07V29.11Zm36.5,8.58c3.09,2.37,5.16,4.01,5.68,4.53,2.33,2.33,3.61,5.42,3.6,8.71h0c0,3.28-1.28,6.37-3.6,8.7-2.36,2.36-5.54,3.71-8.7,3.71h-27.35c8.72-7.31,22.66-19.02,30.36-25.64Z"/>
  <path class="cls-1" d="M364.22,0h-52.77c-1.93,0-3.5,1.57-3.5,3.5v63.34c0,1.93,1.57,3.5,3.5,3.5s3.5-1.57,3.5-3.5V13.17l11.88,14.25s0,39.41,0,39.41c0,1.93,1.57,3.5,3.5,3.5s3.5-1.57,3.5-3.5v-31.02s27.74,33.29,27.75,33.3c.07,.08,.14,.15,.21,.22,.7,.72,2.07,1.31,3.54,.82,1.66-.56,2.38-2.13,2.4-3.07,0-.08,0-63.58,0-63.58C367.72,1.57,366.15,0,364.22,0Zm-22.37,34.52l-22.93-27.52h22.93v27.52Zm18.87,22.65l-11.88-14.25s0-35.92,0-35.92h11.87V57.17Z"/>
  <path class="cls-1" d="M289.06,3.5C289.06,1.57,287.49,0,285.56,0h-47.5c-1.48,0-2.41,.96-2.44,.99-.15,.15-1.06,.95-1.06,2.51v63.34c0,1.56,.91,2.35,1.06,2.51,.04,.04,.96,.99,2.44,.99h47.5c1.93,0,3.5-1.57,3.5-3.5s-1.57-3.5-3.5-3.5h-37.01s33.86-25.39,33.88-25.41c.05-.04,.23-.19,.27-.23,1.87-1.82,.79-3.9,.7-4.09-.03-.06-.72-1.63-2.69-1.9-.05,0-.11-.01-.17-.02-.06,0-.13,0-.19,0-.03,0-14.27,0-14.27,0l-20.56-24.67h40.03c1.93,0,3.5-1.57,3.5-3.5Zm-19.29,35.17l-28.22,21.16v-21.16h28.22Zm-12.8-7h-15.42V13.17l15.42,18.51Z"/>
</svg>